<?xml version="1.0" encoding="UTF-8" standalone="no"?>
<!-- Created with Inkscape (http://www.inkscape.org/) -->

<svg
   xmlns:dc="http://purl.org/dc/elements/1.1/"
   xmlns:cc="http://creativecommons.org/ns#"
   xmlns:rdf="http://www.w3.org/1999/02/22-rdf-syntax-ns#"
   xmlns:svg="http://www.w3.org/2000/svg"
   xmlns="http://www.w3.org/2000/svg"
   xmlns:xlink="http://www.w3.org/1999/xlink"
   xmlns:sodipodi="http://sodipodi.sourceforge.net/DTD/sodipodi-0.dtd"
   xmlns:inkscape="http://www.inkscape.org/namespaces/inkscape"
   width="113mm"
   height="113.00001mm"
   viewBox="0 0 113 113"
   version="1.1"
   id="svg8545"
   inkscape:version="0.92.4 (5da689c313, 2019-01-14)"
   sodipodi:docname="karta_edenred.svg"
   style="enable-background:new"
   inkscape:export-filename="C:\Users\Robert\Desktop\karta_edenred.png"
   inkscape:export-xdpi="31.019466"
   inkscape:export-ydpi="31.019466">
  <defs
     id="defs8539">
    <linearGradient
       inkscape:collect="always"
       id="linearGradient2758">
      <stop
         style="stop-color:#10204d;stop-opacity:1;"
         offset="0"
         id="stop2754" />
      <stop
         id="stop2762"
         offset="0.4000001"
         style="stop-color:#10204d;stop-opacity:1" />
      <stop
         style="stop-color:#10204d;stop-opacity:0.32"
         offset="1"
         id="stop2756" />
    </linearGradient>
    <linearGradient
       inkscape:collect="always"
       id="linearGradient9467">
      <stop
         style="stop-color:#e30018;stop-opacity:1;"
         offset="0"
         id="stop9463" />
      <stop
         id="stop10207"
         offset="0.61073208"
         style="stop-color:#e30018;stop-opacity:1" />
      <stop
         style="stop-color:#e30018;stop-opacity:0"
         offset="1"
         id="stop9465" />
    </linearGradient>
    <filter
       style="color-interpolation-filters:sRGB"
       inkscape:label="Clean Edges"
       id="filter8906">
      <feGaussianBlur
         stdDeviation="0.7"
         result="blur"
         id="feGaussianBlur8900" />
      <feComposite
         in="SourceGraphic"
         in2="blur"
         operator="in"
         result="composite1"
         id="feComposite8902" />
      <feComposite
         in="composite1"
         in2="composite1"
         operator="in"
         result="composite2"
         id="feComposite8904" />
    </filter>
    <radialGradient
       inkscape:collect="always"
       xlink:href="#linearGradient9467"
       id="radialGradient9469"
       cx="73.696014"
       cy="60.115906"
       fx="73.696014"
       fy="60.115906"
       r="8.2853546"
       gradientUnits="userSpaceOnUse"
       gradientTransform="matrix(1.0125207,-1.0125171,1.0730008,1.0730012,-73.508513,63.230584)" />
    <radialGradient
       inkscape:collect="always"
       xlink:href="#linearGradient2758"
       id="radialGradient2760"
       cx="68.29525"
       cy="61.401016"
       fx="68.29525"
       fy="61.401016"
       r="6.6817379"
       gradientTransform="matrix(1.0000017,0,-8.3653493e-8,0.29000001,0.0277222,43.832556)"
       gradientUnits="userSpaceOnUse" />
  </defs>
  <sodipodi:namedview
     id="base"
     pagecolor="#ffffff"
     bordercolor="#666666"
     borderopacity="1.0"
     inkscape:pageopacity="0.0"
     inkscape:pageshadow="2"
     inkscape:zoom="1.979899"
     inkscape:cx="199.31828"
     inkscape:cy="128.18904"
     inkscape:document-units="mm"
     inkscape:current-layer="layer1"
     showgrid="false"
     inkscape:window-width="2560"
     inkscape:window-height="1356"
     inkscape:window-x="-8"
     inkscape:window-y="-8"
     inkscape:window-maximized="1"
     fit-margin-top="1"
     fit-margin-left="1"
     fit-margin-right="1"
     fit-margin-bottom="1"
     inkscape:pagecheckerboard="true"
     showborder="true"
     inkscape:showpageshadow="false" />
  <metadata
     id="metadata8542">
    <rdf:RDF>
      <cc:Work
         rdf:about="">
        <dc:format>image/svg+xml</dc:format>
        <dc:type
           rdf:resource="http://purl.org/dc/dcmitype/StillImage" />
        <dc:title />
      </cc:Work>
    </rdf:RDF>
  </metadata>
  <g
     inkscape:label="Layer 1"
     inkscape:groupmode="layer"
     id="layer1"
     style="display:inline"
     transform="translate(-39.657985,-33.459655)">
    <rect
       style="display:inline;opacity:1;fill:#ffffff;fill-opacity:1;stroke-width:0.26367363"
       id="rect834"
       width="111"
       height="111"
       x="40.657986"
       y="34.459656"
       ry="6.3592634"
       inkscape:label="rectangle" />
    <path
       style="display:none;fill:currentColor;stroke-width:0.01171875"
       inkscape:connector-curvature="0"
       id="path3029"
       d="m 141.65791,132.45966 q 0,1.24219 -0.8789,2.12109 -0.87891,0.87891 -2.1211,0.87891 -1.24218,0 -2.12109,-0.87891 -0.87891,-0.8789 -0.87891,-2.12109 0,-1.24219 0.87891,-2.12109 0.87891,-0.87891 2.12109,-0.87891 1.24219,0 2.1211,0.87891 0.8789,0.8789 0.8789,2.12109 z m 6,1.27734 v -2.60156 q 0,-0.14062 -0.0937,-0.26953 -0.0937,-0.12891 -0.23437,-0.15234 l -2.16797,-0.32813 q -0.22266,-0.63281 -0.45703,-1.06641 0.41016,-0.58593 1.25391,-1.61718 0.11718,-0.14063 0.11718,-0.29297 0,-0.15234 -0.10547,-0.26953 -0.3164,-0.4336 -1.16015,-1.26563 -0.84375,-0.83203 -1.10156,-0.83203 -0.14063,0 -0.30469,0.10547 l -1.61719,1.26563 q -0.51562,-0.26954 -1.06641,-0.44532 -0.1875,-1.59375 -0.33984,-2.17968 -0.082,-0.32813 -0.42187,-0.32813 h -2.60157 q -0.16406,0 -0.28712,0.0996 -0.12304,0.0996 -0.13475,0.25195 l -0.32813,2.15625 q -0.57422,0.18751 -1.05468,0.43361 l -1.65236,-1.25391 q -0.11718,-0.10547 -0.29296,-0.10547 -0.16406,0 -0.29297,0.12891 -1.47657,1.33594 -1.93359,1.96875 -0.082,0.11719 -0.082,0.26953 0,0.14062 0.0937,0.26953 0.17578,0.24609 0.59766,0.7793 0.42187,0.5332 0.63281,0.82617 -0.31641,0.58594 -0.48047,1.16015 l -2.14453,0.31641 q -0.15236,0.0234 -0.24611,0.14649 -0.0937,0.12304 -0.0937,0.27539 v 2.60156 q 0,0.14062 0.0937,0.26953 0.0937,0.12891 0.22267,0.15234 l 2.17969,0.32813 q 0.16406,0.53906 0.45702,1.07812 -0.46875,0.66797 -1.2539,1.61719 -0.11718,0.14063 -0.11718,0.28125 0,0.11719 0.10545,0.26953 0.30469,0.42188 1.15431,1.25977 0.84961,0.83789 1.10742,0.83789 0.15235,0 0.30469,-0.11719 l 1.61719,-1.25391 q 0.51562,0.26954 1.06639,0.44532 0.1875,1.59375 0.33986,2.17968 0.082,0.32813 0.42187,0.32813 h 2.60157 q 0.16406,0 0.28711,-0.0996 0.12304,-0.0996 0.13476,-0.25195 l 0.32813,-2.15625 q 0.5742,-0.1875 1.05468,-0.4336 l 1.66407,1.25391 q 0.10545,0.10547 0.28125,0.10547 0.15234,0 0.29295,-0.11719 1.51173,-1.39453 1.93361,-1.99219 0.082,-0.0937 0.082,-0.25781 0,-0.14062 -0.0937,-0.26953 -0.17577,-0.24609 -0.59765,-0.7793 -0.42187,-0.5332 -0.63281,-0.82617 0.30469,-0.58594 0.48046,-1.14844 l 2.14454,-0.32812 q 0.15234,-0.0234 0.24609,-0.14649 0.0937,-0.12304 0.0937,-0.27539 z"
       inkscape:label="settings gear" />
    <ellipse
       style="display:inline;opacity:1;fill:url(#radialGradient2760);fill-opacity:1;stroke-width:0.26458332"
       id="path8558"
       cx="68.554642"
       cy="61.735996"
       rx="6.6817379"
       ry="1.9377041"
       inkscape:label="logo bottom" />
    <circle
       style="display:inline;opacity:1;fill:url(#radialGradient9469);fill-opacity:1;stroke-width:0.27340278"
       id="path8908"
       cx="68.287369"
       cy="50.577492"
       r="8.2853546"
       inkscape:label="logo top" />
    <path
       style="display:inline;opacity:1;fill:#10204d;fill-opacity:1;stroke-width:0.29092795"
       d="m 46.805414,34.459655 c -3.405547,0 -6.147429,2.73077 -6.147429,6.122518 v 98.754967 c 0,3.39175 2.741882,6.12252 6.147429,6.12252 h 3.839559 V 81.351792 c 0,-5.702592 4.609492,-10.293409 10.335287,-10.293409 -5.725795,0 -10.335287,-4.590814 -10.335287,-10.293408 v -26.30532 z"
       id="rect10209"
       inkscape:connector-curvature="0"
       inkscape:label="side panel" />
    <text
       xml:space="preserve"
       style="font-style:normal;font-variant:normal;font-weight:normal;font-stretch:normal;font-size:14.8166666px;line-height:125%;font-family:'DejaVu Sans';-inkscape-font-specification:'DejaVu Sans';letter-spacing:0px;word-spacing:0px;display:inline;fill:#10204d;fill-opacity:1;stroke:none;stroke-width:0.26458332px;stroke-linecap:butt;stroke-linejoin:miter;stroke-opacity:1"
       x="78.443611"
       y="53.250191"
       id="text887"
       inkscape:label="ticket"><tspan
         sodipodi:role="line"
         id="tspan885"
         x="78.443611"
         y="53.250191"
         style="font-style:oblique;font-variant:normal;font-weight:bold;font-stretch:semi-condensed;font-size:14.8166666px;font-family:'DejaVu Sans';-inkscape-font-specification:'DejaVu Sans Bold Oblique Semi-Condensed';fill:#10204d;fill-opacity:1;stroke-width:0.26458332px">Ticket</tspan></text>
    <text
       xml:space="preserve"
       style="font-style:normal;font-variant:normal;font-weight:normal;font-stretch:normal;font-size:14.8166666px;line-height:125%;font-family:'DejaVu Sans';-inkscape-font-specification:'DejaVu Sans';letter-spacing:0px;word-spacing:0px;display:inline;fill:#10204d;fill-opacity:1;stroke:none;stroke-width:0.26458332px;stroke-linecap:butt;stroke-linejoin:miter;stroke-opacity:1"
       x="78.709167"
       y="62.782932"
       id="text887-7"
       inkscape:label="restaurant"><tspan
         sodipodi:role="line"
         id="tspan885-9"
         x="78.709167"
         y="62.782932"
         style="font-style:oblique;font-variant:normal;font-weight:bold;font-stretch:semi-condensed;font-size:10.23055553px;font-family:'DejaVu Sans';-inkscape-font-specification:'DejaVu Sans Bold Oblique Semi-Condensed';fill:#10204d;fill-opacity:1;stroke-width:0.26458332px">Restaurant<tspan
   style="font-size:4.23333311px"
   id="tspan911" /></tspan></text>
    <text
       xml:space="preserve"
       style="font-style:normal;font-variant:normal;font-weight:normal;font-stretch:normal;font-size:14.8166666px;line-height:125%;font-family:'DejaVu Sans';-inkscape-font-specification:'DejaVu Sans';letter-spacing:0px;word-spacing:0px;display:inline;fill:#10204d;fill-opacity:1;stroke:none;stroke-width:0.26458332px;stroke-linecap:butt;stroke-linejoin:miter;stroke-opacity:1"
       x="135.80214"
       y="58.243164"
       id="text887-7-2"
       inkscape:label="(r)"><tspan
         sodipodi:role="line"
         id="tspan885-9-2"
         x="135.80214"
         y="58.243164"
         style="font-style:normal;font-variant:normal;font-weight:bold;font-stretch:normal;font-size:4.58611107px;font-family:'DejaVu Sans';-inkscape-font-specification:'DejaVu Sans Bold';fill:#10204d;fill-opacity:1;stroke-width:0.26458332px">®</tspan></text>
    <text
       xml:space="preserve"
       style="font-style:normal;font-variant:normal;font-weight:normal;font-stretch:normal;font-size:10.58333302px;line-height:125%;font-family:'DejaVu Sans';-inkscape-font-specification:'DejaVu Sans';letter-spacing:0px;word-spacing:0px;display:none;fill:#000000;fill-opacity:1;stroke:none;stroke-width:0.26458332px;stroke-linecap:butt;stroke-linejoin:miter;stroke-opacity:1"
       x="55.694157"
       y="101.95929"
       id="text4556"
       inkscape:label="preview text"><tspan
         sodipodi:role="line"
         id="tspan4554"
         x="55.694157"
         y="101.95929"
         style="font-style:normal;font-variant:normal;font-weight:bold;font-stretch:normal;font-size:23.28333282px;font-family:'DejaVu Sans';-inkscape-font-specification:'DejaVu Sans Bold';stroke-width:0.26458332px">12,30€</tspan></text>
    <text
       id="text38"
       y="101.95929"
       x="63.432838"
       style="font-style:normal;font-variant:normal;font-weight:normal;font-stretch:normal;font-size:10.58333302px;line-height:125%;font-family:'DejaVu Sans';-inkscape-font-specification:'DejaVu Sans';text-align:start;letter-spacing:0px;word-spacing:0px;text-anchor:start;display:inline;fill:#000000;fill-opacity:1;stroke:none;stroke-width:0.26458332px;stroke-linecap:butt;stroke-linejoin:miter;stroke-opacity:1"
       xml:space="preserve"
       inkscape:label="icon text"><tspan
         style="font-style:normal;font-variant:normal;font-weight:bold;font-stretch:normal;font-size:23.28333282px;font-family:'DejaVu Sans';-inkscape-font-specification:'DejaVu Sans Bold';text-align:start;text-anchor:start;stroke-width:0.26458332px"
         y="101.95929"
         x="63.432838"
         id="tspan36"
         sodipodi:role="line">?,?? €</tspan></text>
  </g>
</svg>
